<svg width="16" height="16" viewBox="0 0 16 16" fill="none" xmlns="http://www.w3.org/2000/svg">
<path d="M0 8C0 3.58125 3.58125 0 8 0C12.4187 0 16 3.58125 16 8C16 12.4187 12.4187 16 8 16C3.58125 16 0 12.4187 0 8ZM7.8375 10.1562H13.1719L9.35 3.53437L8.4 5.17812L9.16875 6.5125L9.34688 6.20312L10.8594 8.82187H8.60312L7.83437 10.1562H7.8375ZM4.19375 12.4656H11.8375L10.8875 10.8219H9.34688L9.525 11.1313H6.5L7.62813 9.17813L6.85938 7.84375L4.19063 12.4625L4.19375 12.4656ZM2.85938 10.1562H4.75625L5.525 8.82187H5.16875L6.68125 6.20312L7.80937 8.15625H9.35L6.68125 3.53437L2.85938 10.1562Z" fill="white" fill-opacity="0.18"/>
</svg>
